<?xml version="1.0" encoding="utf-8"?>
<!-- Generator: Adobe Illustrator 26.3.1, SVG Export Plug-In . SVG Version: 6.00 Build 0)  -->
<svg version="1.1" id="Layer_3" xmlns="http://www.w3.org/2000/svg" xmlns:xlink="http://www.w3.org/1999/xlink" x="0px" y="0px"
	 viewBox="0 0 1171.4 265.5" style="enable-background:new 0 0 1171.4 265.5;" xml:space="preserve">
<style type="text/css">
	.st0{fill:#279EFF;}
	.st1{fill:#FFFFFF;}
</style>
<g>
	<path class="st0" d="M16.4,45.9L125.5,2.8c9.3-3.7,19.7-3.7,29,0l109.1,43.1c4.1,1.7,4.1,7.5,0,9.1L154.5,98.3
		c-9.3,3.7-19.7,3.7-29,0L16.4,55.2C12.2,53.5,12.2,47.5,16.4,45.9z"/>
	<path class="st0" d="M135,253.2V135.3c0-12.2-7.5-23-18.6-27.5L16.8,68.4C8.7,65.3,0,71.1,0,79.8v117.8c0,12.2,7.5,23,18.6,27.5
		l99.6,39.3C126.3,267.9,135,261.9,135,253.2L135,253.2z"/>
	<path class="st0" d="M280.2,79.8v117.8c0,12.2-7.5,23-18.6,27.5L162,264.6c-8.1,3.1-16.8-2.7-16.8-11.4V135.3
		c0-12.2,7.5-23,18.6-27.5l99.6-39.3C271.5,65.1,280.2,71.1,280.2,79.8L280.2,79.8z M236.5,180.1l-12-19.9c-0.6-1-0.2-2.5,0.8-3.7
		c4.1-4.6,6.8-10.6,6.4-15.9c-0.6-6.8-7-10.6-14.1-8.3c-8.9,2.9-16.4,12.8-16.4,21.3c0,5,2.5,8.5,6.4,9.7c1,0.4,1.4,1.7,1,3.1
		l-12,29.4c-1.4,3.7,0.8,6.4,4.3,5l31.1-12.2C235.9,187.1,238.2,182.6,236.5,180.1L236.5,180.1z"/>
</g>
<g>
	<path class="st1" d="M461,174.9c0-4.6-1.7-8.1-5-10.8c-3.3-2.7-7.5-5.4-12.2-7.7c-5-2.3-10.4-4.8-16.2-7
		c-5.8-2.5-11.2-5.4-16.2-8.9c-5-3.5-9.1-7.9-12.2-13.3c-3.3-5.4-5-12-5-20.3c0-7,1.2-13.3,3.5-18.4c2.3-5.2,5.8-9.5,10.1-13
		s9.5-6,15.5-7.7c6-1.7,12.6-2.5,20.1-2.5c8.5,0,16.6,0.8,24,2.3c7.5,1.4,13.7,3.5,18.6,6.4l-8.9,24c-3.1-1.9-7.7-3.7-13.9-5.4
		c-6.2-1.7-12.6-2.5-19.9-2.5c-6.6,0-11.8,1.2-15.3,3.9c-3.5,2.7-5.4,6.2-5.4,10.6c0,4.1,1.7,7.7,5,10.4c3.3,2.7,7.5,5.4,12.2,7.7
		c5,2.3,10.4,4.8,16.2,7.2c5.8,2.5,11.2,5.6,16.2,9.1c5,3.5,9.1,7.9,12.2,13c3.3,5.2,5,11.8,5,19.5c0,7.9-1.2,14.5-3.9,20.1
		c-2.5,5.6-6.2,10.4-10.8,14.1c-4.8,3.7-10.4,6.6-17,8.3c-6.6,1.9-13.9,2.7-21.7,2.7c-10.4,0-19.7-1-27.5-2.9s-13.9-3.9-17.6-5.8
		l9.1-24.4c1.4,0.8,3.5,1.7,6,2.7c2.5,1,5.2,1.9,8.3,2.7c3.1,0.8,6.2,1.4,9.7,2.1c3.3,0.6,6.8,0.8,10.6,0.8c8.5,0,14.9-1.4,19.5-4.3
		C458.7,185,461,180.7,461,174.9z"/>
	<path class="st1" d="M533.9,109.9v59.2c0,8.5,1,14.7,3.1,18.4c2.1,3.7,6,5.6,11.8,5.6c5.2,0,9.5-1.4,12.8-4.6
		c3.3-3.1,6-6.8,7.7-11.2v-67.5h27.1v72.7c0,5.8,0.2,11.4,0.8,16.8c0.6,5.6,1.4,10.6,2.5,14.9h-20.5l-4.8-15.5h-0.8
		c-3.1,5.4-7.7,9.7-13.5,13.3c-5.8,3.5-12.4,5.2-20.3,5.2c-5.4,0-9.9-0.6-14.3-2.1c-4.3-1.4-7.7-3.7-10.4-6.8
		c-2.7-3.1-5-7.5-6.4-12.8c-1.4-5.4-2.3-12.2-2.3-20.5v-64.8h27.3V109.9z"/>
	<path class="st1" d="M708.9,177.4c0,5.8,0,11.6,0.2,17.6c0.2,5.8,0.8,12.2,1.9,19.5h-19.5l-3.7-13.7h-0.8c-2.7,5-6.8,8.9-12,11.8
		c-5.2,2.9-11.4,4.6-18.4,4.6c-13,0-23.2-4.3-30.4-12.8c-7.2-8.7-10.8-22.2-10.8-40.6c0-17.8,3.9-31.7,12-41.6
		c8.1-9.9,19.9-14.9,35.4-14.9c4.3,0,7.9,0.2,10.6,0.8c2.7,0.4,5.6,1.2,8.3,2.5V68h27.1v109.3H708.9z M662.7,194.2
		c5.4,0,9.5-1.2,12.4-3.9c3.1-2.5,5.2-6.2,6.4-11.2v-44.3c-1.9-1.4-4.1-2.7-6.4-3.5c-2.3-0.8-5.4-1.2-9.1-1.2
		c-7.7,0-13.5,2.5-17.2,7.7c-3.7,5.2-5.8,14.1-5.8,26.5c0,8.9,1.7,16.2,4.8,21.5C650.9,191.5,655.9,194.2,662.7,194.2z"/>
	<path class="st1" d="M727.7,162.1c0-17.6,4.3-31.3,12.8-40.8c8.7-9.5,20.7-14.3,36.2-14.3c8.3,0,15.5,1.2,21.7,3.9
		c6.2,2.7,11.2,6.4,15.3,11.2c3.9,4.8,7,10.6,9.1,17.4c2.1,6.8,3.1,14.3,3.1,22.6c0,17.6-4.3,31.3-12.8,40.8
		c-8.5,9.5-20.7,14.3-36.2,14.3c-8.3,0-15.5-1.2-21.7-3.9c-6.2-2.7-11.2-6.4-15.3-11.2c-4.1-4.8-7.2-10.6-9.1-17.4
		C728.8,177.8,727.7,170.1,727.7,162.1z M755.7,162.1c0,4.6,0.4,8.9,1.2,12.6c0.8,3.9,2.1,7.2,3.7,10.1c1.7,2.9,3.9,5.2,6.6,6.8
		c2.7,1.7,6,2.5,9.7,2.5c7,0,12.4-2.5,15.9-7.7c3.5-5.2,5.2-13.3,5.2-24.4c0-9.5-1.7-17.4-4.8-23.2c-3.1-6-8.7-8.9-16.4-8.9
		c-6.6,0-11.8,2.5-15.7,7.5C757.6,142.4,755.7,150.7,755.7,162.1z"/>
	<path class="st0" d="M943.7,102c0,3.5-0.4,7.2-1.4,10.8c-0.8,3.5-2.5,6.8-4.6,9.9c-2.1,2.9-4.8,5.6-8.1,7.9
		c-3.3,2.3-7.2,3.9-12,5.2v1.2c4.1,0.6,8.1,1.9,11.8,3.5c3.7,1.7,7,3.9,9.7,6.8c2.7,2.9,5,6.4,6.6,10.6c1.7,4.1,2.5,9.1,2.5,14.9
		c0,7.5-1.7,14.1-4.8,19.5c-3.1,5.6-7.5,9.9-12.8,13.5c-5.4,3.5-11.4,6-18.2,7.7s-13.9,2.5-21.1,2.5h-9.1c-3.7,0-7.7,0-11.8-0.4
		c-4.3-0.2-8.5-0.6-12.8-1c-4.3-0.4-8.3-1-12-1.9V68.4c2.7-0.4,5.6-0.8,9.1-1.2c3.3-0.4,7-0.8,11-1c3.9-0.2,7.9-0.4,12-0.6
		s8.1-0.2,12.2-0.2c6.8,0,13.5,0.6,19.9,1.7c6.4,1,12.2,2.9,17.4,5.6c5.2,2.7,9.1,6.4,12.2,11C942.3,88.9,943.7,95,943.7,102z
		 M882.7,129.5c1.9,0,4.1,0,6.8-0.2c2.5-0.2,4.8-0.4,6.4-0.6c5.4-1.7,9.9-4.1,13.7-7.5c3.7-3.3,5.8-7.7,5.8-13
		c0-3.5-0.6-6.6-2.1-8.9s-3.3-4.1-5.6-5.6c-2.3-1.4-5-2.3-7.9-2.9c-2.9-0.6-6-0.8-9.1-0.8c-3.5,0-7,0-9.9,0.2
		c-3.1,0.2-5.4,0.4-7,0.6v38.7H882.7z M891.6,192.3c3.3,0,6.6-0.4,9.9-1.2c3.1-0.8,6-2.1,8.5-3.7c2.5-1.7,4.3-3.9,6-6.4
		c1.4-2.7,2.3-5.8,2.3-9.3c0-4.6-0.8-8.1-2.7-10.8c-1.9-2.7-4.1-4.6-7-6c-2.9-1.4-6-2.3-9.7-2.7c-3.5-0.4-7-0.6-10.6-0.6h-14.9v40
		c0.6,0.2,1.9,0.4,3.3,0.6c1.4,0.2,3.1,0.2,4.8,0.4c1.7,0,3.5,0.2,5.4,0.2C888.7,192.3,890.3,192.3,891.6,192.3z"/>
	<path class="st0" d="M963.2,162.1c0-17.6,4.3-31.3,12.8-40.8c8.7-9.5,20.7-14.3,36.2-14.3c8.3,0,15.5,1.2,21.7,3.9
		c6.2,2.7,11.2,6.4,15.3,11.2c3.9,4.8,7,10.6,9.1,17.4c2.1,6.8,3.1,14.3,3.1,22.6c0,17.6-4.3,31.3-12.8,40.8
		c-8.5,9.5-20.7,14.3-36.2,14.3c-8.3,0-15.5-1.2-21.7-3.9c-6.2-2.7-11.2-6.4-15.3-11.2c-4.1-4.8-7.2-10.6-9.1-17.4
		C964.3,177.8,963.2,170.1,963.2,162.1z M991.2,162.1c0,4.6,0.4,8.9,1.2,12.6c0.8,3.9,2.1,7.2,3.7,10.1c1.7,2.9,3.9,5.2,6.6,6.8
		c2.7,1.7,6,2.5,9.7,2.5c7,0,12.4-2.5,15.9-7.7c3.5-5.2,5.2-13.3,5.2-24.4c0-9.5-1.7-17.4-4.8-23.2c-3.1-6-8.7-8.9-16.4-8.9
		c-6.6,0-11.8,2.5-15.7,7.5C993,142.4,991.2,150.7,991.2,162.1z"/>
	<path class="st0" d="M1098.9,160.8l-31.3-50.9h32.3l13.7,22.4l5.8,14.7l6.2-14.7l14.3-22.4h29.4l-31.5,50.1l33.6,54.3h-31.5
		l-16.2-25.1l-6.2-15.5l-6.6,15.5l-16.2,25.1h-29.6L1098.9,160.8z"/>
</g>
</svg>
